<?xml version="1.0" encoding="iso-8859-1"?>
<!-- Generator: Adobe Illustrator 19.0.0, SVG Export Plug-In . SVG Version: 6.00 Build 0)  -->
<svg version="1.1" id="Layer_1" xmlns="http://www.w3.org/2000/svg" xmlns:xlink="http://www.w3.org/1999/xlink" x="0px" y="0px"
	 viewBox="0 0 512 512" style="enable-background:new 0 0 512 512;" xml:space="preserve">
<path style="fill:#A5D2F0;" d="M256,0c141.385,0,256,114.615,256,256c0,18.163-1.921,35.872-5.517,52.966H5.518
	C1.921,291.872,0,274.163,0,256C0,114.615,114.615,0,256,0z"/>
<path style="fill:#6E9BE0;" d="M256,512C114.615,512,0,397.385,0,256h512C512,397.385,397.385,512,256,512z"/>
<g>
	<path style="fill:#5C83CE;" d="M512,256c0,2.962-0.131,5.89-0.232,8.828H0.232C0.131,261.89,0,258.962,0,256
		c0-2.961,0.124-5.891,0.223-8.828h511.554C511.876,250.109,512,253.039,512,256z"/>
	<path style="fill:#5C83CE;" d="M388.414,361.931h44.138c4.875,0,8.828-3.953,8.828-8.828l0,0c0-4.875-3.953-8.828-8.828-8.828
		h-44.138c-4.875,0-8.828,3.953-8.828,8.828l0,0C379.586,357.978,383.539,361.931,388.414,361.931z"/>
	<path style="fill:#5C83CE;" d="M291.31,361.931h61.793c4.875,0,8.828-3.953,8.828-8.828l0,0c0-4.875-3.953-8.828-8.828-8.828
		H291.31c-4.875,0-8.828,3.953-8.828,8.828l0,0C282.483,357.978,286.435,361.931,291.31,361.931z"/>
</g>
<path style="fill:#87B4F0;" d="M194.207,361.931h44.138c4.875,0,8.828-3.953,8.828-8.828l0,0c0-4.875-3.953-8.828-8.828-8.828
	h-44.138c-4.875,0-8.828,3.953-8.828,8.828l0,0C185.379,357.978,189.332,361.931,194.207,361.931z"/>
<g>
	<path style="fill:#5C83CE;" d="M61.793,326.621h150.069c4.875,0,8.828-3.953,8.828-8.828l0,0c0-4.875-3.953-8.828-8.828-8.828
		H61.793c-4.875,0-8.828,3.953-8.828,8.828l0,0C52.966,322.668,56.918,326.621,61.793,326.621z"/>
	<path style="fill:#5C83CE;" d="M238.345,326.621h132.414c4.875,0,8.828-3.953,8.828-8.828l0,0c0-4.875-3.953-8.828-8.828-8.828
		H238.345c-4.875,0-8.828,3.953-8.828,8.828l0,0C229.517,322.668,233.47,326.621,238.345,326.621z"/>
	<path style="fill:#5C83CE;" d="M406.069,326.621h8.828c4.875,0,8.828-3.953,8.828-8.828l0,0c0-4.875-3.953-8.828-8.828-8.828
		h-8.828c-4.875,0-8.828,3.953-8.828,8.828l0,0C397.241,322.668,401.194,326.621,406.069,326.621z"/>
	<path style="fill:#5C83CE;" d="M256,467.862h52.966c4.875,0,8.828-3.953,8.828-8.828l0,0c0-4.875-3.953-8.828-8.828-8.828H256
		c-4.875,0-8.828,3.953-8.828,8.828l0,0C247.172,463.91,251.125,467.862,256,467.862z"/>
</g>
<path style="fill:#87B4F0;" d="M150.069,361.931h8.828c4.875,0,8.828-3.953,8.828-8.828l0,0c0-4.875-3.953-8.828-8.828-8.828h-8.828
	c-4.875,0-8.828,3.953-8.828,8.828l0,0C141.241,357.978,145.194,361.931,150.069,361.931z"/>
<g>
	<path style="fill:#5C83CE;" d="M220.69,432.552h44.138c4.875,0,8.828-3.953,8.828-8.828l0,0c0-4.875-3.953-8.828-8.828-8.828
		H220.69c-4.875,0-8.828,3.953-8.828,8.828l0,0C211.862,428.599,215.815,432.552,220.69,432.552z"/>
	<path style="fill:#5C83CE;" d="M176.552,432.552h8.828c4.875,0,8.828-3.953,8.828-8.828l0,0c0-4.875-3.953-8.828-8.828-8.828
		h-8.828c-4.875,0-8.828,3.953-8.828,8.828l0,0C167.724,428.599,171.677,432.552,176.552,432.552z"/>
</g>
<g>
	<path style="fill:#87B4F0;" d="M256,397.241h26.483c4.875,0,8.828-3.953,8.828-8.828l0,0c0-4.875-3.953-8.828-8.828-8.828H256
		c-4.875,0-8.828,3.953-8.828,8.828l0,0C247.172,393.289,251.125,397.241,256,397.241z"/>
	<path style="fill:#87B4F0;" d="M88.276,397.241h26.483c4.875,0,8.828-3.953,8.828-8.828l0,0c0-4.875-3.953-8.828-8.828-8.828
		H88.276c-4.875,0-8.828,3.953-8.828,8.828l0,0C79.448,393.289,83.401,397.241,88.276,397.241z"/>
	<path style="fill:#87B4F0;" d="M105.931,361.931h8.828c4.875,0,8.828-3.953,8.828-8.828l0,0c0-4.875-3.953-8.828-8.828-8.828
		h-8.828c-4.875,0-8.828,3.953-8.828,8.828l0,0C97.103,357.978,101.056,361.931,105.931,361.931z"/>
	<path style="fill:#87B4F0;" d="M326.621,432.552h35.31c4.875,0,8.828-3.953,8.828-8.828l0,0c0-4.875-3.953-8.828-8.828-8.828
		h-35.31c-4.875,0-8.828,3.953-8.828,8.828l0,0C317.793,428.599,321.746,432.552,326.621,432.552z"/>
	<path style="fill:#87B4F0;" d="M317.793,397.241h8.828c4.875,0,8.828-3.953,8.828-8.828l0,0c0-4.875-3.953-8.828-8.828-8.828
		h-8.828c-4.875,0-8.828,3.953-8.828,8.828l0,0C308.966,393.289,312.918,397.241,317.793,397.241z"/>
</g>
<g>
	<path style="fill:#FFD7AF;" d="M449.207,164.833l-12.331-17.523l-22.621-14.897h-47.172l-144.255,16.029
		c-9.068,1.007-16.92,6.752-20.626,15.089l-49.504,111.385L84.6,308.966h132.414l35.31-114.759l124.505-35.126l16,13.793
		l29.426,13.977l6.069-4.919l-17.103-14.208v-8.828l26.114,16.415c1.749,1.099,3.967,1.122,5.738,0.06l4.47-2.682
		C450.275,171.05,451.04,167.437,449.207,164.833z"/>
	<path style="fill:#FFD7AF;" d="M367.681,308.966c5.123-14.492,3.986-31.081-4.559-45.169v-0.001
		c-15.108-24.907-47.848-32.924-72.755-17.815l-22.643,13.735c-17.538,10.638-26.653,30.018-25.265,49.25H367.681z"/>
</g>
<path style="fill:#FF5050;" d="M367.681,308.966c5.123-14.492,3.986-31.081-4.559-45.17c-15.107-24.907-47.848-32.924-72.755-17.815
	l-3.774,2.29l36.818,60.695H367.681z"/>
<path style="fill:#B43C3C;" d="M333.736,308.966l-39.477-65.081c-1.311,0.652-2.617,1.325-3.891,2.097l-11.321,6.868l34.039,56.117
	H333.736z"/>
<g>
	<path style="fill:#643C46;" d="M282.264,292.195l-4.578-7.548c-3.793-6.253-1.799-14.396,4.454-18.189l0,0
		c6.252-3.793,14.396-1.799,18.189,4.454l4.578,7.548c3.793,6.252,1.799,14.396-4.454,18.188l0,0
		C294.2,300.441,286.057,298.447,282.264,292.195z"/>
	<path style="fill:#643C46;" d="M323.411,308.966l-0.191-0.316c-3.793-6.252-11.936-8.247-18.188-4.454
		c-1.99,1.207-3.493,2.882-4.572,4.769L323.411,308.966L323.411,308.966z"/>
</g>
<g>
</g>
<g>
</g>
<g>
</g>
<g>
</g>
<g>
</g>
<g>
</g>
<g>
</g>
<g>
</g>
<g>
</g>
<g>
</g>
<g>
</g>
<g>
</g>
<g>
</g>
<g>
</g>
<g>
</g>
</svg>
